<svg xmlns="http://www.w3.org/2000/svg">
<defs>
    <path fill="#000000" d="M13.7.1A10.7 10.7 0 0 1 22 6c.8 1.5 1.2 3.2 1.3 5.2 0 .6 0 .8-.2 1-.3.4-1 .3-1.1-.1l-.1-.8a13.7 13.7 0 0 0-.2-2 9.3 9.3 0 0 0-8.9-7.7c-.8 0-.9 0-1-.2-.4-.2-.4-.8 0-1 .1-.2.2-.3.8-.2h1.1zM5 .6l.5.2c.7.5 2.7 3 3.4 4.3.3.7.5 1.3.3 1.7 0 .4-.3.6-1.2 1.4l-.7.6c-.2.2-.3.6-.3.9 0 .6.4 1.8 1 2.7a11.5 11.5 0 0 0 4.4 4c1.1.5 1.8.7 2.3.4l.3-.1.6-.8c.7-.8.8-1 1.2-1a2 2 0 0 1 1.7 0 22.6 22.6 0 0 1 4.5 3.4c.4.5.5 1.1.2 1.8-.2.8-1.3 2.1-2.1 2.7a3 3 0 0 1-1.8.7c-.6 0-.8 0-1.5-.3A30.2 30.2 0 0 1 .8 6C.2 4.5.2 3.8.7 3l1.5-1.5c1-.7 1.5-1 1.8-1h1zm9 2.3c2.3.3 4 1.4 5.2 3.1a7.5 7.5 0 0 1 1.3 4.8.9.9 0 0 1-.4.4h-.6c-.3-.2-.4-.4-.4-1 0-1-.3-2-.7-2.9a5.8 5.8 0 0 0-2.1-2.2c-.8-.4-2-.8-3-.9-.3 0-.5 0-.7-.2a.7.7 0 0 1 0-.9c.2-.3.5-.3 1.4-.2zm.8 2.9c.7.1 1.3.4 1.8.9.6.6 1 1.3 1.1 2.3.1.7 0 1-.1 1.2-.3.2-.7.2-1 0-.1-.2-.2-.3-.2-.7 0-.5-.2-.9-.3-1.2-.4-.7-1-1.1-2-1.2-.4 0-.6-.1-.7-.3a.7.7 0 0 1 .2-1l.5-.1h.7z"/>
</defs>
</svg>